<?xml version="1.0"?>
<svg xmlns="http://www.w3.org/2000/svg" xmlns:xlink="http://www.w3.org/1999/xlink" xmlns:svgjs="http://svgjs.com/svgjs" version="1.1" width="512" height="512" x="0" y="0" viewBox="0 0 64 64" style="enable-background:new 0 0 512 512" xml:space="preserve" class=""><g><path xmlns="http://www.w3.org/2000/svg" d="m16 3v53h-6v-48a5 5 0 0 1 5-5z" fill="#0f346c" data-original="#ff7956" style="" class=""/><path xmlns="http://www.w3.org/2000/svg" d="m16 3h38v48h-38z" fill="#004880" data-original="#78b9eb" style="" class=""/><path xmlns="http://www.w3.org/2000/svg" d="m16 54h37v4h-37z" fill="#e0e0e2" data-original="#e0e0e2" style="" class=""/><path xmlns="http://www.w3.org/2000/svg" d="m46.73 17.1a5.011 5.011 0 0 1 -6.49 6.49l-2.41 2.41-2.83-2.83 2.41-2.41a5.011 5.011 0 0 1 6.49-6.49l-3.24 3.24 2.83 2.83z" fill="#898890" data-original="#898890" style="" class=""/><path xmlns="http://www.w3.org/2000/svg" d="m43.49 31.66-2.83 2.83 3.24 3.24a5.011 5.011 0 0 1 -6.49-6.49l-7.65-7.65a5.011 5.011 0 0 1 -6.49-6.49l3.24 3.24 2.83-2.83-3.24-3.24a5.011 5.011 0 0 1 6.49 6.49l7.65 7.65a5.011 5.011 0 0 1 6.49 6.49z" fill="#e0e0e2" data-original="#e0e0e2" style="" class=""/><path xmlns="http://www.w3.org/2000/svg" d="m32.59 31.24a5.011 5.011 0 0 1 -6.49 6.49l3.24-3.24-2.83-2.83-3.24 3.24a5.011 5.011 0 0 1 6.49-6.49l2.41-2.41 2.83 2.83z" fill="#898890" data-original="#898890" style="" class=""/><path xmlns="http://www.w3.org/2000/svg" d="m16 54v4h38v3h-39a5 5 0 0 1 0-10h39v3z" fill="#0b3c60" data-original="#cd2a00" style="" class=""/><path xmlns="http://www.w3.org/2000/svg" d="m16 54h37v1h-37z" fill="#c6c5ca" data-original="#c6c5ca" style="" class=""/></g></svg>
